<?xml version="1.0" encoding="UTF-8"?>
<svg version="1.1" xmlns="http://www.w3.org/2000/svg" width="512" height="512">
<path d="M0 0 C1.10657959 0.04664795 2.21315918 0.0932959 3.35327148 0.14135742 C54.0566841 2.61778078 54.0566841 2.61778078 67.94140625 17.78515625 C84.21773271 38.30393371 81.9099567 76.83050457 82.5 101.75 C82.52191406 102.57177734 82.54382813 103.39355469 82.56640625 104.24023438 C83.09993167 127.23517983 81.55149879 150.32890255 78.5625 173.125 C78.40491211 174.33542969 78.24732422 175.54585937 78.08496094 176.79296875 C76.08228061 191.09668154 73.12055354 203.33723994 61.91796875 213.1796875 C55.5992848 217.28325931 49.02489749 219.38527477 41.62109375 220.453125 C40.78786087 220.58104935 39.95462799 220.70897369 39.09614563 220.84077454 C36.37905429 221.24721398 33.65940877 221.62725358 30.9375 222 C29.99869995 222.13107147 29.0598999 222.26214294 28.09265137 222.39718628 C0.56614037 226.16393223 -28.1073901 227.11064394 -55.5 221.75 C-56.30953125 221.5948291 -57.1190625 221.4396582 -57.953125 221.27978516 C-71.94652026 218.51213984 -82.71386815 214.60990897 -91.10546875 202.51953125 C-94.81476072 195.15289818 -96.04726151 187.25963535 -96.8515625 179.1328125 C-97.00810806 177.66519974 -97.00810806 177.66519974 -97.16781616 176.16793823 C-97.49582207 173.07115392 -97.81048846 169.97318059 -98.125 166.875 C-98.34290238 164.80590014 -98.5616458 162.73688868 -98.78125 160.66796875 C-99.29255021 155.82239466 -99.78391512 150.97514316 -100.26266479 146.12625122 C-100.45417199 144.20883994 -100.65706138 142.29256745 -100.86352539 140.37670898 C-101.84820736 130.47269147 -101.6987727 120.50491492 -101.6875 110.5625 C-101.68689575 109.58201691 -101.6862915 108.60153381 -101.68566895 107.59133911 C-101.66051329 92.55546812 -101.35151339 77.6897977 -99.5 62.75 C-99.36045898 61.61240234 -99.22091797 60.47480469 -99.07714844 59.30273438 C-98.61785644 55.67715548 -98.12949147 52.0570535 -97.625 48.4375 C-97.47579102 47.3455835 -97.32658203 46.25366699 -97.17285156 45.12866211 C-95.14650071 31.63726785 -91.67839176 19.77587652 -80.3125 11.375 C-70.74828015 5.68702785 -58.88914986 4.90324454 -48.0378418 3.44238281 C-45.7003366 3.12673341 -43.36484853 2.79850958 -41.02929688 2.46875 C-27.35119696 0.56989133 -13.82868739 -0.60342177 0 0 Z " fill="#000000" transform="translate(385.5,240.25)"/>
<path d="M0 0 C1.14976318 0.24057129 2.29952637 0.48114258 3.48413086 0.72900391 C16.13617066 3.52613205 25.29190725 6.63300001 32.66796875 17.6484375 C35.71111365 23.16357986 36.51279038 28.80234243 37.21875 34.95703125 C37.32165848 35.81264648 37.42456696 36.66826172 37.53059387 37.54980469 C37.86146611 40.32402309 38.18186618 43.09929359 38.5 45.875 C38.61016449 46.8264389 38.72032898 47.77787781 38.83383179 48.75814819 C39.57690792 55.19066969 40.29477687 61.62573023 41 68.0625 C41.14002441 69.32320313 41.28004883 70.58390625 41.42431641 71.8828125 C45.2319173 107.29834785 43.93732583 144.06118054 38.0625 179.1875 C37.9171582 180.0626123 37.77181641 180.93772461 37.62207031 181.83935547 C35.5248236 193.10374296 31.31877317 203.42451957 21.875 210.375 C11.65521273 216.50687236 -1.31849626 217.16337698 -12.9375 218.6875 C-13.75935791 218.79611359 -14.58121582 218.90472717 -15.42797852 219.01663208 C-45.31813882 222.93595647 -74.42090009 222.72992006 -104 216.0625 C-105.92585938 215.65064453 -105.92585938 215.65064453 -107.890625 215.23046875 C-117.52492158 212.77708392 -124.23776241 207.35140744 -129.9375 199.25 C-135.79555321 188.29938692 -136.08852785 175.00755061 -137.30761719 162.90063477 C-137.62331188 159.76675786 -137.95113715 156.63434086 -138.28125 153.50195312 C-139.407199 142.70004889 -140.43655542 131.91051556 -141 121.0625 C-141.04543945 120.19536377 -141.09087891 119.32822754 -141.13769531 118.43481445 C-142.14242564 94.62124257 -138.21203286 70.59072025 -134.80892944 47.07583618 C-134.60609348 45.67185382 -134.40662259 44.26738037 -134.21084595 42.86239624 C-132.31299309 29.38317231 -129.04931917 18.95516764 -119.1875 9.3125 C-111.37014414 3.79436645 -102.84113214 1.85126257 -93.5625 0 C-92.30002441 -0.25604004 -91.03754883 -0.51208008 -89.73681641 -0.77587891 C-58.82694538 -6.8359572 -30.83047174 -6.51847776 0 0 Z " fill="#000000" transform="translate(183,49.9375)"/>
<path d="M0 0 C0.84691406 0.14985352 1.69382813 0.29970703 2.56640625 0.45410156 C14.96130536 2.70989657 27.0238187 5.46986902 35 16 C41.8555135 26.13130074 43.69364384 38.20367753 46 50 C46.30550781 51.4540625 46.30550781 51.4540625 46.6171875 52.9375 C48.63944194 69.11553555 47.14951832 85.3097487 43 101 C42.69964844 102.17175781 42.39929688 103.34351563 42.08984375 104.55078125 C39.0091982 115.04631393 32.82793241 124.64969979 23.09472656 130.05883789 C16.89471991 132.97027831 10.88224421 134.13592136 4.125 135.0625 C2.99803711 135.22459961 1.87107422 135.38669922 0.70996094 135.55371094 C-2.85760501 136.05603212 -6.42778425 136.53196683 -10 137 C-11.15081055 137.15388184 -12.30162109 137.30776367 -13.48730469 137.46630859 C-46.08337269 141.74309766 -94.1999393 145.90429172 -122.3125 125.375 C-131.31862098 117.49632906 -135.06412605 108.33347563 -137.375 96.8125 C-137.62121094 95.68908203 -137.86742187 94.56566406 -138.12109375 93.40820312 C-143.23389196 69.6183251 -142.61688844 40.07803302 -129.8203125 18.50390625 C-121.75341323 7.40759202 -111.90060747 3.41530931 -98.8046875 1.296875 C-95.16616803 0.74398823 -91.52260616 0.23903594 -87.875 -0.25 C-86.91468872 -0.38107147 -85.95437744 -0.51214294 -84.96496582 -0.64718628 C-56.85496538 -4.40832221 -27.99614865 -5.13262725 0 0 Z " fill="#000000" transform="translate(183,330)"/>
<path d="M0 0 C7.63283123 7.54833209 10.70954573 16.24828559 12.77880859 26.56469727 C13.148125 28.24982422 13.148125 28.24982422 13.52490234 29.96899414 C18.3969892 52.6388409 18.50813632 82.83196702 5.81005859 103.38891602 C-2.91110819 115.71967682 -11.85821872 119.4241649 -26.48754883 122.08496094 C-30.92955286 122.8246198 -35.38370051 123.46223992 -39.84619141 124.06469727 C-40.65944885 124.17458984 -41.4727063 124.28448242 -42.31060791 124.39770508 C-69.35710459 127.95019807 -97.71392968 128.46808712 -124.59619141 123.37719727 C-125.54558594 123.20027344 -126.49498047 123.02334961 -127.47314453 122.84106445 C-147.84702481 118.89575453 -147.84702481 118.89575453 -154.59619141 112.37719727 C-155.23427734 111.76875977 -155.87236328 111.16032227 -156.52978516 110.53344727 C-163.69664406 103.02389033 -166.17510705 94.14953785 -168.28369141 84.18969727 C-168.60176758 82.75207031 -168.60176758 82.75207031 -168.92626953 81.28540039 C-169.50294455 78.65306993 -170.05468266 76.01695032 -170.59619141 73.37719727 C-170.80244141 72.40395508 -171.00869141 71.43071289 -171.22119141 70.42797852 C-173.20930201 54.25387035 -171.76825584 38.06093335 -167.59619141 22.37719727 C-167.28423828 21.19383789 -166.97228516 20.01047852 -166.65087891 18.79125977 C-163.65666453 8.80215802 -158.41091603 0.22994657 -149.59619141 -5.62280273 C-143.56072917 -8.75777073 -137.88617041 -10.40280138 -131.17041016 -11.29077148 C-129.86714531 -11.47848869 -129.86714531 -11.47848869 -128.53755188 -11.66999817 C-125.78784932 -12.06249557 -123.03596048 -12.43628077 -120.28369141 -12.81030273 C-118.45084668 -13.0715354 -116.61816246 -13.33389678 -114.78564453 -13.59741211 C-81.35566385 -18.34745487 -27.48117152 -24.04088375 0 0 Z " fill="#000000" transform="translate(453.59619140625,58.622802734375)"/>
</svg>
