<?xml version="1.0" encoding="UTF-8"?>
<svg version="1.1" xmlns="http://www.w3.org/2000/svg" width="512" height="512">
<path d="M0 0 C2.74202967 0.00461362 5.48361376 -0.0022471 8.22558594 -0.02050781 C57.67062229 -0.34609489 113.1669941 4.14987936 152.5690918 37.31567383 C153.36831055 37.98083008 154.1675293 38.64598633 154.9909668 39.33129883 C186.36872104 66.42140963 197.97014086 108.56240016 202.5690918 148.31567383 C202.67350586 149.20496582 202.77791992 150.09425781 202.88549805 151.01049805 C209.7727926 213.53013231 209.62130804 294.61108982 168.7722168 346.45239258 C160.28960269 356.86358144 150.98059334 365.20553494 139.5690918 372.31567383 C137.9893457 373.32887695 137.9893457 373.32887695 136.37768555 374.36254883 C77.11637104 410.46507337 -16.98670431 407.09018978 -82.4309082 392.00317383 C-107.35332956 385.9026326 -130.79329865 375.20538572 -149.4309082 357.31567383 C-150.26493164 356.54481445 -151.09895508 355.77395508 -151.95825195 354.97973633 C-185.73556094 322.81582731 -193.95356285 270.34428464 -195.55557251 225.85351562 C-195.75875218 217.32041451 -195.7677763 208.78823525 -195.7434082 200.25317383 C-195.74191772 198.9588443 -195.74042725 197.66451477 -195.7388916 196.33096313 C-195.69923235 177.16000805 -195.29055121 158.29857618 -192.4309082 139.31567383 C-192.28637207 138.32116211 -192.14183594 137.32665039 -191.99291992 136.30200195 C-186.99435216 102.97821689 -176.40035747 71.48908824 -153.4309082 46.31567383 C-152.78766602 45.58993164 -152.14442383 44.86418945 -151.48168945 44.11645508 C-114.27068481 4.32247398 -50.8708804 -0.09277473 0 0 Z M-57.2434082 142.37817383 C-59.67322243 146.34260757 -59.73985123 149.75876415 -59.4309082 154.31567383 C-57.12783077 160.67144437 -52.32482278 164.80194799 -47.60668945 169.43286133 C-46.31458809 170.71859543 -46.31458809 170.71859543 -44.99638367 172.03030396 C-42.25237105 174.757568 -39.49809531 177.4741962 -36.7434082 180.19067383 C-34.8774866 182.04154376 -33.01224415 183.89309865 -31.14770508 185.74536133 C-26.58328095 190.27676678 -22.01039292 194.79949202 -17.4309082 199.31567383 C-21.82803102 204.59204964 -26.47905417 209.45718341 -31.3840332 214.26098633 C-32.90515138 215.76460448 -34.42597618 217.26851946 -35.9465332 218.77270508 C-38.32221572 221.11733615 -40.70014794 223.45954207 -43.08325195 225.79663086 C-45.39860066 228.06968358 -47.70442531 230.35205137 -50.0090332 232.63598633 C-51.0808786 233.67990036 -51.0808786 233.67990036 -52.17437744 234.74490356 C-56.65021951 239.19736224 -59.15634021 242.2954259 -59.7434082 248.75317383 C-59.28127837 254.02145397 -57.7957482 257.08398895 -53.8684082 260.62817383 C-50.63284226 262.86818102 -48.70812533 263.55383456 -44.8059082 263.75317383 C-43.98864258 263.81375977 -43.17137695 263.8743457 -42.3293457 263.93676758 C-34.5659317 262.27317886 -28.37016512 254.5268725 -22.9934082 249.07348633 C-22.22786621 248.30511444 -21.46232422 247.53674255 -20.67358398 246.74508667 C-18.25457864 244.31497959 -15.84266139 241.87797626 -13.4309082 239.44067383 C-11.78163403 237.78135694 -10.13189883 236.12249815 -8.48168945 234.46411133 C-4.45941791 230.41991232 -0.44292608 226.37004377 3.5690918 222.31567383 C6.77134432 223.72267978 8.86437453 225.38731413 11.29272461 227.89160156 C12.00736877 228.62253525 12.72201294 229.35346893 13.45831299 230.10655212 C14.22190125 230.89614822 14.9854895 231.68574432 15.7722168 232.49926758 C17.40849503 234.16571586 19.04522816 235.83171758 20.68237305 237.49731445 C23.25274511 240.12339345 25.81904541 242.753126 28.37719727 245.39111328 C30.85177375 247.93847143 33.34196378 250.46971069 35.8347168 252.99926758 C36.59020813 253.78683945 37.34569946 254.57441132 38.12408447 255.385849 C42.68336302 259.98796509 46.24622839 262.69919329 52.5690918 264.31567383 C58.58018418 263.89777436 62.40792346 261.5759176 66.5690918 257.31567383 C69.01352235 253.48960861 68.63854466 250.05215678 68.2487793 245.69458008 C66.22855206 238.62378474 60.14693814 233.63195162 55.0847168 228.63598633 C54.26912292 227.82322235 53.45352905 227.01045837 52.61322021 226.17306519 C50.0198534 223.5908491 47.41960212 221.01569367 44.8190918 218.44067383 C43.05430924 216.68592764 41.28998116 214.93072426 39.52612305 213.17504883 C35.21236256 208.88328096 30.89293588 204.59728128 26.5690918 200.31567383 C30.8336964 195.21196212 35.30756629 190.46764205 40.04956055 185.80786133 C41.47482281 184.39523413 42.89994903 182.98246967 44.32495117 181.56958008 C46.54822433 179.37118236 48.77307929 177.1744321 51.00048828 174.98022461 C53.16708994 172.84384354 55.32741395 170.70126974 57.48706055 168.55786133 C58.1527153 167.9056662 58.81837006 167.25347107 59.50419617 166.58151245 C64.7878582 161.32659461 68.30126213 157.08273425 68.5690918 149.31567383 C66.95134763 144.10294262 64.71992605 140.84388294 60.5690918 137.31567383 C57.88377619 136.42056863 56.04107917 136.09454733 53.2565918 136.00317383 C52.51795898 135.96579102 51.77932617 135.9284082 51.01831055 135.88989258 C43.94644488 137.11929187 38.68437714 143.94148548 33.8894043 148.80004883 C33.07664032 149.6156427 32.26387634 150.43123657 31.42648315 151.27154541 C28.84426707 153.86491222 26.26911164 156.4651635 23.6940918 159.06567383 C21.93934561 160.83045638 20.18414223 162.59478447 18.4284668 164.35864258 C14.13669892 168.67240306 9.85069925 172.99182974 5.5690918 177.31567383 C2.41070297 175.91986859 0.30469381 174.28767902 -2.11035156 171.83154297 C-2.81465805 171.12063004 -3.51896454 170.4097171 -4.24461365 169.67726135 C-4.99573929 168.90953903 -5.74686493 168.14181671 -6.52075195 167.35083008 C-7.30229141 166.56171738 -8.08383087 165.77260468 -8.88905334 164.95957947 C-12.23112623 161.58481781 -15.56129814 158.19839875 -18.89257812 154.81298828 C-21.32704004 152.34235097 -23.76747667 149.87772795 -26.20825195 147.41333008 C-26.95735336 146.64763199 -27.70645477 145.8819339 -28.47825623 145.09303284 C-34.27933415 138.98741002 -34.27933415 138.98741002 -41.89575195 135.88208008 C-48.67155179 135.87137581 -52.61843249 137.11527043 -57.2434082 142.37817383 Z " fill="#000000" transform="translate(246.430908203125,56.684326171875)"/>
</svg>
