<?xml version="1.0" encoding="UTF-8"?>
<svg version="1.1" xmlns="http://www.w3.org/2000/svg" width="512" height="512">
<path d="M0 0 C1.001521 -0.0065712 2.00304199 -0.0131424 3.03491211 -0.01991272 C6.30826924 -0.03942668 9.58158122 -0.05125286 12.85498047 -0.0612793 C14.54407846 -0.06739259 14.54407846 -0.06739259 16.26729965 -0.07362938 C22.21693481 -0.09438698 28.16654755 -0.10873829 34.11621094 -0.11816406 C40.24369321 -0.12926531 46.37081609 -0.16373771 52.49817085 -0.20333576 C57.23034325 -0.22950369 61.96242943 -0.2378556 66.69466782 -0.24144554 C68.95361663 -0.24630333 71.21256181 -0.25789413 73.47143936 -0.27648354 C76.63229253 -0.3009001 79.79220588 -0.29990619 82.953125 -0.29296875 C84.33738174 -0.31218384 84.33738174 -0.31218384 85.74960327 -0.33178711 C92.67791953 -0.27658762 99.05271358 1.07059666 104.23430061 5.95641613 C108.85049432 11.07943256 110.59183896 14.88768013 110.63427734 21.87890625 C110.64111038 22.54468689 110.64794342 23.21046753 110.65498352 23.89642334 C110.66855185 25.34065578 110.67761777 26.784936 110.68269348 28.22922325 C110.69102981 30.53211633 110.71158821 32.83462167 110.73522949 35.1374054 C110.78341921 40.04637907 110.81625297 44.95539327 110.84716797 49.86450195 C110.88311678 55.51476062 110.92570766 61.16483584 110.98310852 66.81492043 C111.00277286 69.05280409 111.01141967 71.29053736 111.01940918 73.52848816 C111.1153945 86.57178295 111.57302863 100.19676822 116.09716797 112.55200195 C116.36102295 113.3011084 116.62487793 114.05021484 116.89672852 114.82202148 C125.16411224 137.57759595 141.9690166 155.58151231 163.72216797 165.98950195 C175.87180618 171.55749497 188.65021133 174.28281748 202.01318359 174.31884766 C202.73301926 174.32232208 203.45285492 174.32579651 204.19450378 174.32937622 C205.74238837 174.33667206 207.29028299 174.34204992 208.83818054 174.34566689 C211.29426298 174.35290355 213.75015374 174.36862026 216.20617676 174.38700867 C223.18397487 174.43915865 230.16165933 174.48745779 237.13964844 174.50292969 C241.42199971 174.51304247 245.70385351 174.54243807 249.98600769 174.5842495 C251.6093519 174.59650517 253.23276646 174.60169074 254.8561554 174.59945107 C272.02183059 174.58158533 272.02183059 174.58158533 279.37060547 180.9230957 C279.81662109 181.48125977 280.26263672 182.03942383 280.72216797 182.61450195 C281.18365234 183.17008789 281.64513672 183.72567383 282.12060547 184.2980957 C284.74782787 188.32259881 285.59748847 191.88970819 285.60786438 196.66165161 C285.61494919 197.75173523 285.622034 198.84181885 285.6293335 199.9649353 C285.62685608 201.15140656 285.62437866 202.33787781 285.62182617 203.56030273 C285.62949257 205.44682556 285.62949257 205.44682556 285.63731384 207.37145996 C285.65069366 210.81864029 285.65128239 214.26571085 285.64875054 217.71291208 C285.64767759 220.60430297 285.6525738 223.49567196 285.65735596 226.38705814 C285.66845311 233.22704964 285.668891 240.06698627 285.6628418 246.90698242 C285.65683615 253.91693517 285.669025 260.92668546 285.69041187 267.93660367 C285.70817204 273.98452265 285.71400579 280.03237812 285.71077412 286.08032215 C285.7089798 289.67863575 285.71140605 293.27680581 285.72548866 296.87509537 C285.7938183 315.9657261 285.61675087 334.72023732 279.15966797 352.92700195 C278.85923584 353.79623291 278.55880371 354.66546387 278.24926758 355.56103516 C273.87032451 367.79436233 267.96567226 378.38849038 259.34716797 388.17700195 C258.68330078 388.98395508 258.01943359 389.7909082 257.33544922 390.62231445 C237.7499805 413.71941065 208.44111662 425.34549759 178.77408218 427.96387672 C171.62295851 428.40861644 164.45612494 428.32464931 157.29394531 428.32226562 C155.48741589 428.32526278 153.6808871 428.32866658 151.87435913 428.33244324 C146.99385598 428.34123196 142.11337039 428.34361921 137.23286009 428.34425902 C134.17511153 428.34497257 131.11736736 428.34711266 128.0596199 428.34975624 C117.36754323 428.35899349 106.67547897 428.36309326 95.98339844 428.36230469 C86.0570338 428.36170469 76.13072363 428.37224531 66.20437276 428.38804835 C57.64938872 428.40117699 49.09442237 428.40648634 40.53942835 428.40584928 C35.44453361 428.40559581 30.34968731 428.40836288 25.2548027 428.41902733 C20.45631831 428.42879812 15.65792779 428.42872679 10.85943985 428.4215107 C9.11210745 428.42047584 7.36476892 428.4227612 5.6174469 428.42887115 C-8.78215709 428.47590604 -23.25892766 427.86734966 -37.21533203 423.98950195 C-37.99924316 423.77592041 -38.7831543 423.56233887 -39.59082031 423.34228516 C-67.21566148 415.47219054 -91.09228604 398.02447113 -105.60058594 373.09057617 C-118.0219977 350.50147515 -121.12428465 326.69698841 -121.04101562 301.30981445 C-121.04509254 299.19008109 -121.05044064 297.07034986 -121.0569458 294.95062256 C-121.0704921 289.25225245 -121.06537376 283.55404732 -121.05580854 277.85567474 C-121.04814554 271.85617164 -121.05527581 265.85668147 -121.05996704 259.85717773 C-121.06540542 249.78732806 -121.05828355 239.71754466 -121.04394531 229.64770508 C-121.02762257 218.05115254 -121.03291244 206.45475832 -121.04942453 194.85820961 C-121.06309429 184.85250315 -121.06493235 174.846844 -121.05710852 164.84113121 C-121.05246205 158.88667588 -121.05172292 152.93229464 -121.06171799 146.97784424 C-121.07046577 141.37648459 -121.06422499 135.77532651 -121.04703522 130.17398834 C-121.04311169 128.13400861 -121.04413217 126.09401153 -121.05082321 124.054039 C-121.09997635 107.52832926 -120.03770632 91.1319931 -114.46533203 75.42700195 C-114.16272461 74.55487061 -113.86011719 73.68273926 -113.54833984 72.78417969 C-108.54394549 58.84281805 -101.31469607 47.35678688 -91.65283203 36.17700195 C-90.99669922 35.41774414 -90.34056641 34.65848633 -89.66455078 33.8762207 C-66.86866682 9.51830615 -32.31881185 0.09458335 0 0 Z M-27.09033203 226.80200195 C-29.2079151 231.37598139 -29.32691664 235.21707072 -28.65283203 240.17700195 C-26.81264192 244.77747722 -23.5371072 247.26379558 -19.65283203 250.17700195 C-16.57631822 251.20250656 -14.46853822 251.3076361 -11.24528503 251.31744385 C-10.12233536 251.32315399 -8.99938568 251.32886414 -7.84240723 251.33474731 C-6.60962036 251.33586517 -5.3768335 251.33698303 -4.10668945 251.33813477 C-2.80891068 251.34309967 -1.5111319 251.34806458 -0.17402649 251.35317993 C3.38806809 251.36629708 6.95014382 251.3727476 10.51225877 251.37719059 C12.73836091 251.38012256 14.96445792 251.38422761 17.19055748 251.38869476 C24.15735596 251.40236819 31.12414268 251.41203547 38.09095365 251.41589665 C46.12963964 251.42037651 54.16815552 251.43792159 62.20678979 251.46689725 C68.4226074 251.4885237 74.63837719 251.49860145 80.85423201 251.49993777 C84.56563112 251.50098516 88.27687029 251.50687863 91.98822975 251.52475739 C96.12987186 251.54432083 100.27115858 251.53994528 104.4128418 251.53344727 C106.25291306 251.54726944 106.25291306 251.54726944 108.13015747 251.56137085 C114.75990557 251.52873714 119.90406636 251.39110868 124.99169922 246.6418457 C129.31487354 240.98846389 130.2824396 237.27656385 129.34716797 230.17700195 C127.68119695 226.29931079 125.52042221 223.9800504 122.05809021 221.61021423 C116.50667217 219.46617564 111.1946532 219.75150807 105.29272461 219.77294922 C103.31854805 219.76265434 103.31854805 219.76265434 101.30448914 219.75215149 C97.70524465 219.73424757 94.10624433 219.73538318 90.50696874 219.74109387 C87.49757722 219.7441898 84.48823232 219.73808879 81.47884744 219.73205513 C74.37705331 219.71802057 67.2753795 219.7195622 60.17358398 219.73095703 C52.85714022 219.74243715 45.54106307 219.72836219 38.22466761 219.70156056 C31.93316799 219.6793798 25.64178325 219.67277151 19.35024732 219.67863697 C15.59691965 219.68200212 11.84382695 219.67962119 8.0905323 219.66238594 C3.90378854 219.64399838 -0.2822452 219.6581282 -4.46899414 219.67529297 C-5.70610138 219.665625 -6.94320862 219.65595703 -8.21780396 219.64599609 C-16.45585193 219.71673367 -21.31262118 220.5798518 -27.09033203 226.80200195 Z M-27.65283203 313.17700195 C-29.28052169 318.06007093 -29.82531008 323.45301199 -27.74658203 328.2824707 C-24.99846786 332.41345002 -22.29174989 334.25967136 -17.65283203 336.17700195 C-14.60812573 336.5992798 -11.5999374 336.5874174 -8.52978516 336.56518555 C-7.18230446 336.57307098 -7.18230446 336.57307098 -5.80760193 336.58111572 C-2.84958307 336.59427783 0.107894 336.585591 3.06591797 336.57543945 C5.1280528 336.57746127 7.19018694 336.58037362 9.25231934 336.58413696 C13.56964947 336.58855519 17.88679314 336.58214531 22.20410156 336.56811523 C27.73227533 336.55102377 33.26001212 336.56086762 38.78816986 336.57883263 C43.04501628 336.58968394 47.30175945 336.58621791 51.55860901 336.57844925 C53.59672599 336.57645098 55.63485241 336.5788934 57.67295837 336.58588791 C60.52359779 336.59352445 63.37353392 336.58186714 66.22412109 336.56518555 C67.06274185 336.57125824 67.90136261 336.57733093 68.76539612 336.58358765 C75.22856621 336.5136791 79.32913967 335.06049503 84.15966797 330.55200195 C87.05175705 326.75848251 87.74537601 322.88382105 87.34716797 318.17700195 C86.01027524 313.49787739 84.09315768 310.77074887 80.28466797 307.73950195 C75.35263038 305.1160777 71.21056068 305.02321958 65.74829102 305.01586914 C64.86991577 305.01090424 63.99154053 305.00593933 63.08654785 305.00082397 C60.17731953 304.98620529 57.26814575 304.97940068 54.35888672 304.97387695 C52.33730569 304.96812508 50.31572467 304.96236735 48.29414368 304.956604 C44.05310817 304.94609473 39.81209162 304.94025164 35.57104492 304.93676758 C30.14035334 304.93128429 24.70991266 304.90725939 19.27929974 304.87879562 C15.10225191 304.86015876 10.92526437 304.85496307 6.74817848 304.8534317 C4.74633221 304.85040681 2.74448695 304.8423838 0.7426815 304.82924652 C-2.06032949 304.81216494 -4.86272935 304.81407152 -7.66577148 304.82055664 C-8.4904039 304.81134186 -9.31503632 304.80212708 -10.16465759 304.79263306 C-17.81893755 304.84802264 -22.554822 307.35070478 -27.65283203 313.17700195 Z " fill="#000000" transform="translate(173.65283203125,41.822998046875)"/>
<path d="M0 0 C7.07918754 5.1797473 13.11025445 11.94871592 19.30957031 18.13256836 C20.42721955 19.24393933 21.54505312 20.35512495 22.66305542 21.46614075 C26.30494392 25.08716927 29.94166093 28.7133691 33.578125 32.33984375 C34.83605558 33.59372167 36.09401831 34.84756733 37.35201263 36.1013813 C43.25775454 41.98812071 49.16111612 47.87723434 55.0615437 53.7693004 C61.85562601 60.55359266 68.6579254 67.32950561 75.46724629 74.0985021 C80.74495842 79.34603499 86.01495265 84.60123923 91.27925181 89.8622275 C94.41772303 92.9983528 97.55938572 96.13111228 100.70926666 99.25578117 C103.66972487 102.19291835 106.62046646 105.13948337 109.56415176 108.09342766 C110.64261531 109.17238548 111.72447737 110.24795925 112.81004715 111.319767 C125.35883077 123.71836847 125.35883077 123.71836847 126.3125 131.57421875 C125.59735839 136.4103639 124.78872505 139.61008811 121 143 C114.58226622 146.61997898 108.60500163 146.40460488 101.359375 146.328125 C100.12374817 146.32625183 98.88812134 146.32437866 97.61505127 146.32244873 C94.99252636 146.31573223 92.37001139 146.30182582 89.74755859 146.28125 C85.83290743 146.25064811 81.91866417 146.24032373 78.00390625 146.234375 C65.34703007 146.19607635 52.69721604 146.00447756 40.046875 145.58984375 C38.3877005 145.54111115 38.3877005 145.54111115 36.69500732 145.49139404 C28.89423022 145.20138597 22.1600535 144.30953584 15 141 C14.05769531 140.5771875 13.11539063 140.154375 12.14453125 139.71875 C-2.62711993 132.38386114 -12.57976101 120.21985318 -18.08984375 104.84765625 C-19.76444539 99.60823737 -20.1535435 94.95439255 -20.16113281 89.45532227 C-20.16609772 88.59470184 -20.17106262 87.73408142 -20.17617798 86.84738159 C-20.19076941 84.00371499 -20.19759571 81.16010412 -20.203125 78.31640625 C-20.20887787 76.33869933 -20.21463558 74.36099242 -20.22039795 72.38328552 C-20.23089859 68.23818706 -20.23674775 64.09310794 -20.24023438 59.94799805 C-20.24572454 54.63718183 -20.26976769 49.32662129 -20.29820633 44.01588535 C-20.31682834 39.93152619 -20.32203802 35.84722876 -20.32357025 31.76283073 C-20.32659706 29.80481502 -20.33462654 27.8468004 -20.34775543 25.88882637 C-20.36481064 23.15037657 -20.36293726 20.41255363 -20.35644531 17.67407227 C-20.3656601 16.8661171 -20.37487488 16.05816193 -20.3843689 15.22572327 C-20.33968125 9.20800191 -18.83362562 6.18852091 -15.0625 1.6875 C-10.27706612 -0.94937173 -5.28614076 -1.34870097 0 0 Z " fill="#000000" transform="translate(333,43)"/>
</svg>
